REM DIRINDEX 1\2,1\3
REM DIRNAME folder01,folder02,folder03
TITLE ""
FILE "sample sentencesTrack14.mp3" MP3
  TRACK 01 AUDIO
    TITLE "3:cjc143_2883"
    INDEX 01 00:00:00
  TRACK 02 AUDIO
    TITLE "0:"
    INDEX 01 00:00:74
  TRACK 03 AUDIO
    TITLE "3:cjc143_2884"
    INDEX 01 00:01:68
  TRACK 04 AUDIO
    TITLE "0:"
    INDEX 01 00:05:14
  TRACK 05 AUDIO
    TITLE "3:cjc143_2885"
    INDEX 01 00:06:18
  TRACK 06 AUDIO
    TITLE "0:"
    INDEX 01 00:09:10
  TRACK 07 AUDIO
    TITLE "3:cjc143_2886"
    INDEX 01 00:10:19
  TRACK 08 AUDIO
    TITLE "0:"
    INDEX 01 00:14:49
  TRACK 09 AUDIO
    TITLE "3:cjc143_2887"
    INDEX 01 00:15:56
  TRACK 10 AUDIO
    TITLE "0:"
    INDEX 01 00:19:03
  TRACK 11 AUDIO
    TITLE "3:cjc143_2888"
    INDEX 01 00:20:12
  TRACK 12 AUDIO
    TITLE "0:"
    INDEX 01 00:23:20
  TRACK 13 AUDIO
    TITLE "3:cjc143_2889"
    INDEX 01 00:24:25
  TRACK 14 AUDIO
    TITLE "0:"
    INDEX 01 00:26:28
  TRACK 15 AUDIO
    TITLE "3:cjc143_2890"
    INDEX 01 00:27:39
  TRACK 16 AUDIO
    TITLE "0:"
    INDEX 01 00:30:16
  TRACK 17 AUDIO
    TITLE "3:cjc143_2891"
    INDEX 01 00:31:24
  TRACK 18 AUDIO
    TITLE "0:"
    INDEX 01 00:33:73
  TRACK 19 AUDIO
    TITLE "3:cjc143_2892"
    INDEX 01 00:35:02
  TRACK 20 AUDIO
    TITLE "0:"
    INDEX 01 00:39:54
  TRACK 21 AUDIO
    TITLE "3:cjc143_2893"
    INDEX 01 00:40:60
  TRACK 22 AUDIO
    TITLE "0:"
    INDEX 01 00:43:44
  TRACK 23 AUDIO
    TITLE "3:cjc143_2894"
    INDEX 01 00:44:52
  TRACK 24 AUDIO
    TITLE "0:"
    INDEX 01 00:47:03
  TRACK 25 AUDIO
    TITLE "3:cjc143_2895"
    INDEX 01 00:48:14
  TRACK 26 AUDIO
    TITLE "0:"
    INDEX 01 00:50:62
  TRACK 27 AUDIO
    TITLE "3:cjc143_2896"
    INDEX 01 00:51:73
  TRACK 28 AUDIO
    TITLE "0:"
    INDEX 01 00:54:48
  TRACK 29 AUDIO
    TITLE "3:cjc143_2897"
    INDEX 01 00:55:55
  TRACK 30 AUDIO
    TITLE "0:"
    INDEX 01 00:59:00
  TRACK 31 AUDIO
    TITLE "3:cjc143_2898"
    INDEX 01 01:00:08
  TRACK 32 AUDIO
    TITLE "0:"
    INDEX 01 01:03:00
  TRACK 33 AUDIO
    TITLE "3:cjc143_2899"
    INDEX 01 01:04:05
  TRACK 34 AUDIO
    TITLE "0:"
    INDEX 01 01:07:37
  TRACK 35 AUDIO
    TITLE "3:cjc143_2900"
    INDEX 01 01:08:50
  TRACK 36 AUDIO
    TITLE "0:"
    INDEX 01 01:12:36
  TRACK 37 AUDIO
    TITLE "3:cjc143_2901"
    INDEX 01 01:13:47
  TRACK 38 AUDIO
    TITLE "0:"
    INDEX 01 01:16:07
  TRACK 39 AUDIO
    TITLE "3:cjc143_2902"
    INDEX 01 01:17:20
  TRACK 40 AUDIO
    TITLE "0:"
    INDEX 01 01:19:42
  TRACK 41 AUDIO
    TITLE "3:cjc143_2903"
    INDEX 01 01:20:51
  TRACK 42 AUDIO
    TITLE "0:"
    INDEX 01 01:23:62
  TRACK 43 AUDIO
    TITLE "3:cjc143_2904"
    INDEX 01 01:24:69
  TRACK 44 AUDIO
    TITLE "0:"
    INDEX 01 01:27:30
  TRACK 45 AUDIO
    TITLE "3:cjc143_2905"
    INDEX 01 01:28:37
  TRACK 46 AUDIO
    TITLE "0:"
    INDEX 01 01:33:03
  TRACK 47 AUDIO
    TITLE "3:cjc143_2906"
    INDEX 01 01:34:14
  TRACK 48 AUDIO
    TITLE "0:"
    INDEX 01 01:37:69
  TRACK 49 AUDIO
    TITLE "3:cjc143_2907"
    INDEX 01 01:39:02
  TRACK 50 AUDIO
    TITLE "0:"
    INDEX 01 01:42:31
  TRACK 51 AUDIO
    TITLE "3:cjc143_2908"
    INDEX 01 01:43:45
  TRACK 52 AUDIO
    TITLE "0:"
    INDEX 01 01:45:40
  TRACK 53 AUDIO
    TITLE "3:cjc143_2909"
    INDEX 01 01:46:59
  TRACK 54 AUDIO
    TITLE "0:"
    INDEX 01 01:49:20
  TRACK 55 AUDIO
    TITLE "3:cjc143_2910"
    INDEX 01 01:50:31
  TRACK 56 AUDIO
    TITLE "0:"
    INDEX 01 01:53:45
  TRACK 57 AUDIO
    TITLE "3:cjc143_2911"
    INDEX 01 01:54:56
  TRACK 58 AUDIO
    TITLE "0:"
    INDEX 01 01:59:55
  TRACK 59 AUDIO
    TITLE "3:cjc143_2912"
    INDEX 01 02:00:63
  TRACK 60 AUDIO
    TITLE "0:"
    INDEX 01 02:04:06
  TRACK 61 AUDIO
    TITLE "3:cjc143_2913"
    INDEX 01 02:05:13
  TRACK 62 AUDIO
    TITLE "0:"
    INDEX 01 02:09:26
  TRACK 63 AUDIO
    TITLE "3:cjc143_2914"
    INDEX 01 02:10:34
  TRACK 64 AUDIO
    TITLE "0:"
    INDEX 01 02:12:40
  TRACK 65 AUDIO
    TITLE "3:cjc143_2915"
    INDEX 01 02:13:48
  TRACK 66 AUDIO
    TITLE "0:"
    INDEX 01 02:16:23
  TRACK 67 AUDIO
    TITLE "3:cjc143_2916"
    INDEX 01 02:17:32
  TRACK 68 AUDIO
    TITLE "0:"
    INDEX 01 02:19:25
  TRACK 69 AUDIO
    TITLE "3:cjc143_2917"
    INDEX 01 02:20:46
  TRACK 70 AUDIO
    TITLE "0:"
    INDEX 01 02:24:04
  TRACK 71 AUDIO
    TITLE "3:cjc143_2918"
    INDEX 01 02:25:25
  TRACK 72 AUDIO
    TITLE "0:"
    INDEX 01 02:28:20
  TRACK 73 AUDIO
    TITLE "3:cjc143_2919"
    INDEX 01 02:29:39
  TRACK 74 AUDIO
    TITLE "0:"
    INDEX 01 02:32:63
  TRACK 75 AUDIO
    TITLE "3:cjc143_2920"
    INDEX 01 02:34:07
  TRACK 76 AUDIO
    TITLE "0:"
    INDEX 01 02:37:21
  TRACK 77 AUDIO
    TITLE "3:cjc143_2921"
    INDEX 01 02:38:36
  TRACK 78 AUDIO
    TITLE "0:"
    INDEX 01 02:41:21
  TRACK 79 AUDIO
    TITLE "3:cjc143_2922"
    INDEX 01 02:42:30
  TRACK 80 AUDIO
    TITLE "0:"
    INDEX 01 02:46:49
  TRACK 81 AUDIO
    TITLE "3:cjc143_2923"
    INDEX 01 02:47:58
  TRACK 82 AUDIO
    TITLE "0:"
    INDEX 01 02:50:41
  TRACK 83 AUDIO
    TITLE "3:cjc143_2924"
    INDEX 01 02:51:50
  TRACK 84 AUDIO
    TITLE "0:"
    INDEX 01 02:54:66
  TRACK 85 AUDIO
    TITLE "3:cjc143_2925"
    INDEX 01 02:55:74
  TRACK 86 AUDIO
    TITLE "0:"
    INDEX 01 03:00:55
  TRACK 87 AUDIO
    TITLE "3:cjc143_2926"
    INDEX 01 03:01:64
  TRACK 88 AUDIO
    TITLE "0:"
    INDEX 01 03:05:54
